<svg width="459" height="687" viewBox="0 0 459 687" fill="none" xmlns="http://www.w3.org/2000/svg">
<path d="M357.696 211.262C357.696 206.324 357.696 201.389 356.865 197.276L284.468 228.538H169.286L101.003 200.565C101.003 203.855 100.179 207.969 100.179 211.262C100.179 282.014 157.769 339.604 228.521 339.604C300.106 339.604 357.696 282.014 357.696 211.262Z" fill="white"/>
<path d="M0.633789 512.373V647.294L10.5058 649.769C30.2508 656.351 49.9958 661.286 68.9168 665.4V444.086C68.9168 404.587 91.9508 370.042 124.862 353.59C53.2858 371.69 0.633789 435.859 0.633789 512.373Z" fill="white"/>
<path d="M189.031 348.661L178.334 369.23C175.866 374.168 175.045 378.278 175.045 383.207V450.669C175.045 468.769 189.855 483.576 207.952 483.576H250.744C268.834 483.576 283.651 468.766 283.651 450.669V383.207C283.651 378.269 282.821 373.344 280.361 369.23L269.658 348.661H189.031Z" fill="white"/>
<path d="M318.197 384.852V450.669C318.197 487.69 287.765 518.131 250.744 518.131H207.955C170.934 518.131 140.493 487.69 140.493 450.669V384.852C118.279 395.548 103.472 418.592 103.472 444.086V674.442C149.544 683.49 192.324 686.783 229.345 686.783C266.366 686.783 309.148 682.67 355.217 674.442V444.086C355.217 418.592 340.41 395.548 318.197 384.852Z" fill="white"/>
<path d="M333.828 353.59C367.559 370.045 390.593 404.59 390.593 444.086V667.038C409.508 662.925 429.253 657.175 449.004 651.407L458.052 648.124L458.055 513.203C458.055 435.859 405.403 371.69 333.828 353.59Z" fill="white"/>
<path d="M229.345 101.02C250.744 101.02 261.422 82.099 261.422 59.886V0.651001H229.345H197.258V59.062C197.258 82.096 207.955 101.02 229.345 101.02Z" fill="white"/>
<path d="M172.579 203.858H285.289L370.851 169.303L378.255 144.621L370.027 136.393C365.09 67.289 328.069 19.572 277.062 1.47198V59.883C277.062 92.789 257.317 120.762 229.345 120.762C201.372 120.762 181.627 93.614 181.627 59.883V1.47198C130.62 19.572 93.5999 67.289 87.8379 136.396L79.6099 144.624L87.0139 169.306L172.579 203.858Z" fill="white"/>
</svg>
