<svg width="586" height="774" viewBox="0 0 586 774" fill="none" xmlns="http://www.w3.org/2000/svg">
<path d="M425.674 0.86499H0.185059V773.368L585.939 773.367V161.131L425.674 0.86499ZM433.146 44.411L542.395 153.66H433.146V44.411ZM560.433 747.86H25.6951V747.858V26.375H407.637V179.17H560.433V747.86Z" fill="white"/>
<path d="M131.78 60.286C96.6653 60.286 68.0942 88.855 68.0942 123.973C68.0942 159.09 96.6653 187.659 131.78 187.659C166.896 187.659 195.467 159.088 195.467 123.973C195.466 88.855 166.896 60.286 131.78 60.286ZM131.78 162.148C110.73 162.148 93.6033 145.021 93.6033 123.97C93.6033 102.919 110.73 85.793 131.78 85.793C152.831 85.793 169.958 102.918 169.958 123.97C169.958 145.023 152.831 162.148 131.78 162.148Z" fill="white"/>
<path d="M386.432 272.501H80.8511V298.01H386.432V272.501Z" fill="white"/>
<path d="M505.285 357.378H80.8511V382.887H505.285V357.378Z" fill="white"/>
<path d="M505.285 442.272H80.8511V467.781H505.285V442.272Z" fill="white"/>
<path d="M293.069 527.165H80.8511V552.674H293.069V527.165Z" fill="white"/>
<path d="M352.488 85.751H233.65V111.26H352.488V85.751Z" fill="white"/>
<path d="M327.025 136.675H233.65V162.184H327.025V136.675Z" fill="white"/>
<path d="M486.763 625.118C479.177 616.017 468.784 603.555 448.656 603.555C428.527 603.555 418.138 616.018 410.548 625.118C403.57 633.484 399.87 637.508 392.033 637.508C384.226 637.508 380.532 633.488 373.572 625.126C365.995 616.024 355.616 603.553 335.506 603.553V629.062C343.315 629.062 347.007 633.083 353.968 641.445C361.545 650.547 371.924 663.018 392.036 663.018C412.162 663.018 422.555 650.553 430.144 641.454C437.122 633.088 440.822 629.063 448.658 629.063C456.495 629.063 460.195 633.086 467.173 641.454C474.759 650.553 485.152 663.018 505.278 663.018V637.508C497.442 637.507 493.741 633.485 486.763 625.118Z" fill="white"/>
<path d="M114.805 603.556H80.8511V629.065H114.805V603.556Z" fill="white"/>
<path d="M165.739 603.556H131.785V629.065H165.739V603.556Z" fill="white"/>
<path d="M208.18 662.975H80.8511V688.484H208.18V662.975Z" fill="white"/>
<path d="M445.86 272.501H411.906V298.01H445.86V272.501Z" fill="white"/>
<path d="M505.279 272.501H471.325V298.01H505.279V272.501Z" fill="white"/>
</svg>
