<svg width="536" height="723" viewBox="0 0 536 723" fill="none" xmlns="http://www.w3.org/2000/svg">
<path d="M433.851 213.524C331.881 276.033 258.386 354.973 228.549 390.057L151.927 330.038C149.902 328.582 107.839 365.924 108.959 367.078L248.495 508.941C249.521 510.104 250.933 510.629 252.458 510.629C252.734 510.629 253.165 510.629 253.527 510.535C255.354 510.121 256.904 508.889 257.585 507.071C280.064 449.603 354.291 329.28 449.076 242.017C450.765 240.423 451.359 237.916 450.42 235.745C450.403 235.727 435.264 212.654 433.851 213.524Z" fill="white"/>
<path d="M525.353 87.963C314.072 87.963 278.332 7.76504 278.014 7.01604C276.463 3.08704 272.637 0.468047 268.303 0.373047C268.303 0.373047 268.209 0.373047 268.122 0.373047C263.926 0.373047 260.049 2.99204 258.369 6.82604C258.111 7.67004 221.596 87.963 11.1159 87.963C5.23091 87.963 0.586914 92.7281 0.586914 98.4751V457.839C0.586914 604.949 253.26 717.336 263.952 722.049C265.365 722.661 266.71 722.893 268.235 722.893C269.622 722.893 271.129 722.669 272.473 722.049C283.252 717.327 535.891 604.94 535.891 457.839V98.466C535.839 92.728 531.169 87.963 525.353 87.963ZM477.758 436.928C477.758 552.03 279.926 640.094 271.517 643.738C270.492 644.264 269.286 644.445 268.209 644.445C267.046 644.445 265.977 644.264 264.883 643.738C256.56 640.094 58.6669 552.03 58.6669 436.928V155.642C58.6669 151.101 62.3379 147.37 66.9209 147.37C231.72 147.37 260.282 84.542 260.558 83.931C261.859 80.898 264.866 78.847 268.174 78.847C268.217 78.847 268.312 78.847 268.312 78.847C271.689 78.89 274.671 80.941 275.877 84.069C276.153 84.637 304.146 147.37 469.513 147.37C474.096 147.37 477.741 151.11 477.741 155.642L477.758 436.928Z" fill="white"/>
</svg>
