<svg width="697" height="697" viewBox="0 0 697 697" fill="none" xmlns="http://www.w3.org/2000/svg">
<path d="M204.643 228.359V468.243C204.643 475.442 209.439 480.238 216.638 480.238L480.507 480.233C487.705 480.233 492.502 475.437 492.502 468.238V228.359C492.502 221.16 487.705 216.364 480.507 216.364H216.638C209.439 216.364 204.643 221.16 204.643 228.359ZM228.633 240.349H468.512V456.243L228.633 456.248V240.349Z" fill="white"/>
<path d="M324.585 348.299H264.615V372.289H324.585V348.299Z" fill="white"/>
<path d="M408.542 396.274H264.613V420.264H408.542V396.274Z" fill="white"/>
<path d="M588.456 276.334C595.655 276.334 600.451 271.538 600.451 264.339V228.355L696.401 228.359V204.369H600.451V168.385C600.451 161.186 595.655 156.39 588.456 156.39L552.471 156.394V120.41C552.471 113.211 547.675 108.415 540.477 108.415H504.496V0.469971H480.507V108.42L444.527 108.415C437.328 108.415 432.532 113.211 432.532 120.41V156.394H408.542V120.41C408.542 113.211 403.746 108.415 396.547 108.415H360.567V0.469971H336.578V108.42L300.597 108.415C293.399 108.415 288.603 113.211 288.603 120.41V156.394H264.613V120.41C264.613 113.211 259.817 108.415 252.618 108.415H216.638V0.469971H192.648V108.42L156.668 108.415C149.469 108.415 144.673 113.211 144.673 120.41V156.394H108.689C101.49 156.394 96.6942 161.19 96.6942 168.389V204.374L0.744141 204.369V228.359H96.6942V264.344C96.6942 271.542 101.49 276.339 108.689 276.339L144.673 276.334V288.329H108.689C101.49 288.329 96.6942 293.125 96.6942 300.324V336.308L0.744141 336.304V360.293H96.6942V396.278C96.6942 403.477 101.49 408.273 108.689 408.273L144.673 408.268V420.263H108.689C101.49 420.263 96.6942 425.059 96.6942 432.258V468.243L0.744141 468.238V492.228H96.6942V528.212C96.6942 535.411 101.49 540.207 108.689 540.207L144.673 540.203V576.187C144.673 583.386 149.469 588.182 156.668 588.182H192.648V696.132L216.638 696.127V588.178L252.618 588.182C259.817 588.182 264.613 583.386 264.613 576.187V540.203H288.603V576.187C288.603 583.386 293.399 588.182 300.597 588.182H336.578V696.132L360.567 696.127V588.178L396.547 588.182C403.746 588.182 408.542 583.386 408.542 576.187V540.203H432.532V576.187C432.532 583.386 437.328 588.182 444.527 588.182H480.507V696.132L504.496 696.127V588.178L540.477 588.182C547.675 588.182 552.471 583.386 552.471 576.187V540.203H588.456C595.655 540.203 600.451 535.407 600.451 528.208V492.223L696.401 492.228V468.238H600.451V432.254C600.451 425.055 595.655 420.259 588.456 420.259L552.471 420.263V408.268H588.456C595.655 408.268 600.451 403.472 600.451 396.274V360.289L696.401 360.293V336.304H600.451V300.319C600.451 293.121 595.655 288.324 588.456 288.324L552.471 288.329V276.334H588.456ZM576.461 252.344H552.471V180.379H576.461V252.344ZM528.486 264.339V300.324V396.278V432.263V516.222L444.527 516.218H396.547H300.597H252.618H168.659V432.258V396.274V300.319V264.334V180.375L252.618 180.379H300.597H396.547H444.527H528.486V264.339ZM456.522 132.405H528.486V156.394H456.522V132.405ZM312.588 132.405H384.557V156.394H312.588V132.405ZM168.659 132.405H240.623V156.394H168.659V132.405ZM120.683 252.344V180.379H144.673V252.344H120.683ZM120.683 384.283V312.319L144.673 312.314V384.279L120.683 384.283ZM120.683 444.253H144.673V516.218H120.683V444.253ZM240.623 564.192H168.659V540.203H240.623V564.192ZM384.557 564.192H312.588V540.203H384.557V564.192ZM528.486 564.192H456.522V540.203H528.486V564.192ZM576.461 444.253V516.218H552.471V444.253H576.461ZM576.461 312.314V384.279L552.471 384.283V312.319L576.461 312.314Z" fill="white"/>
</svg>
