<svg width="1187" height="760" viewBox="0 0 1187 760" fill="none" xmlns="http://www.w3.org/2000/svg">
<path fill-rule="evenodd" clip-rule="evenodd" d="M490.06 295.776L490.045 336.425L557.377 336.539C579.337 336.484 591.564 337.318 604.634 324.181C619.898 308.838 627.883 261.397 569.94 261.405L490.35 261.628L490.06 295.776ZM491.316 495.781C518.181 497.146 549.151 496.409 576.298 496.07C604.439 495.719 624.317 486.537 625.091 457.008C625.845 428.378 605.848 417.939 578.395 417.793C550.83 417.647 518.391 416.591 491.307 418.266C488.73 428.932 488.509 485.533 491.316 495.781ZM406.892 285.871L406.815 413.406L407.183 575.782C410.435 579.294 411.867 579.252 421.124 579.301L544.813 579.425C596.876 579.548 625.87 580.834 663.76 554.981C709.514 523.761 726.449 452.329 694.223 403.865C685.075 390.11 671.584 379.563 658.569 369.698C691.334 341.19 706.672 297.959 688.651 240.203C674.119 220.669 671.513 211.098 648.303 196.49C630.203 185.099 606.471 177.831 580.492 177.242C522.885 175.939 464.546 178.526 406.98 176.881L406.892 285.871Z" fill="#030303"/>
<path fill-rule="evenodd" clip-rule="evenodd" d="M98.514 554.828C146.484 578.191 183.241 592.257 246.808 579.744C271.487 574.884 290.675 565.922 309.73 554.79C327.185 544.594 350.919 526.531 358.472 512.133L296.237 458.792C182.494 568.207 28.379 429.568 109.092 310.292C144.983 257.253 220.606 240.406 284.755 289.937C287.97 292.419 291.029 294.126 293.096 296.401L351.849 234.756C344.16 228.81 333.798 219.62 328.021 215.221C240.223 148.364 119.209 165.191 47.347 248.503C-21.08 327.829 -15.315 448.415 68.588 529.194L98.514 554.828Z" fill="#030303"/>
<path fill-rule="evenodd" clip-rule="evenodd" d="M886.33 306.904C882.061 315.387 874.508 325.19 869.35 333.413C856.663 353.64 822.357 403.717 816.08 419.703L943.445 419.235L850.233 759.28C851.415 757.163 852.219 759.24 859.158 746.214L883.404 705.605C894.807 687.754 904.912 670.705 916.09 652.429C927.13 634.381 938.088 617.836 949.024 599.536L1115.64 336.279L1059.14 336.017L989.312 336.296L1083.22 0.225952C1075.18 7.40495 991.484 143.747 984.799 153.632C967.98 178.496 951.984 204.671 935.82 230.267C919.36 256.333 903.727 281.82 886.33 306.904Z" fill="#003399"/>
<path fill-rule="evenodd" clip-rule="evenodd" d="M1050.19 310.218L1146.05 310.406L1154.99 296.881L1169.93 307.421L1106.06 404.038L1105.95 404.3L1104.25 579.375L1186.64 579.731L1185.67 180.835L1050.19 310.218Z" fill="#030303"/>
<path d="M1178.29 288.732H1130.96V310.396H1178.29V288.732Z" fill="black"/>
<path fill-rule="evenodd" clip-rule="evenodd" d="M746.817 183.143C746.896 186.318 747.141 191.336 747.257 199.455C747.379 207.809 747.297 216.225 747.285 224.586C747.087 341.754 749.001 463.191 747.366 579.143L831.311 579.422L831.21 444.495L780.923 443.399L774.77 452.532L759.924 441.861L863.402 288.267L746.817 183.143Z" fill="#030303"/>
<path d="M831.228 441.861H759.923V467.601H831.228V441.861Z" fill="black"/>
</svg>
