<svg width="620" height="620" viewBox="0 0 620 620" fill="none" xmlns="http://www.w3.org/2000/svg">
<path d="M310.319 0.95105C139.423 0.95105 0.823975 139.55 0.823975 310.452C0.823975 481.348 139.423 619.947 310.319 619.947C481.221 619.947 619.82 481.348 619.82 310.452C619.82 139.55 481.221 0.95105 310.319 0.95105Z" fill="black"/>
<path d="M464.295 171.175L406.327 467.147C406.327 467.147 403.836 480.67 387.062 480.67C378.148 480.67 373.551 476.429 373.551 476.429L247.989 372.239L186.553 341.275L107.705 320.307C107.705 320.307 93.668 316.254 93.668 304.644C93.668 294.971 108.109 290.361 108.109 290.361L437.975 159.319C437.958 159.302 448.047 155.681 455.399 155.699C459.914 155.705 465.067 157.635 465.067 163.443C465.067 167.309 464.295 171.175 464.295 171.175Z" fill="white"/>
<path d="M294.844 411.116L241.824 463.328C241.824 463.328 239.52 465.106 236.438 465.188C235.367 465.217 234.227 465.047 233.051 464.521L247.971 372.215L294.844 411.116Z" fill="#B0BEC5"/>
<path d="M401.572 220.638C398.958 217.234 394.127 216.614 390.723 219.199L186.518 341.404C186.518 341.404 219.107 432.581 224.073 448.367C229.056 464.164 233.051 464.539 233.051 464.539L247.971 372.233L400.122 231.476C403.526 228.885 404.157 224.042 401.572 220.638Z" fill="#CFD8DC"/>
</svg>
