<svg width="624" height="627" viewBox="0 0 624 627" fill="none" xmlns="http://www.w3.org/2000/svg">
<path fill-rule="evenodd" clip-rule="evenodd" d="M16.3411 610.188L58.0901 457.778C32.3311 413.177 18.7901 362.567 18.8071 310.727C18.8831 148.559 150.852 16.6189 313.038 16.6189C391.744 16.6489 465.6 47.2859 521.159 102.875C576.7 158.475 607.292 232.366 607.256 310.961C607.192 473.135 475.194 605.086 313.038 605.086H312.915C263.681 605.069 215.285 592.722 172.312 569.271L16.3411 610.188Z" fill="white"/>
<path fill-rule="evenodd" clip-rule="evenodd" d="M16.341 617.93C14.297 617.93 12.312 617.122 10.842 615.635C8.90302 613.667 8.148 610.797 8.874 608.149L49.767 458.826C24.412 413.792 11.041 362.655 11.07 310.739C11.135 144.284 146.589 8.87097 313.038 8.87097C393.776 8.89997 469.629 40.346 526.641 97.404C583.653 154.481 615.034 230.317 615.005 310.961C614.941 477.41 479.475 612.835 313.038 612.835C263.617 612.817 214.728 600.623 171.34 577.547L18.309 617.667C17.659 617.854 17.009 617.93 16.341 617.93Z" fill="white"/>
<path fill-rule="evenodd" clip-rule="evenodd" d="M313.038 16.6189C391.744 16.6489 465.6 47.2859 521.159 102.875C576.7 158.475 607.292 232.366 607.256 310.961C607.192 473.135 475.194 605.086 313.038 605.086H312.915C263.681 605.069 215.285 592.722 172.312 569.271L16.341 610.188L58.0901 457.778C32.3311 413.177 18.79 362.567 18.807 310.727C18.883 148.559 150.852 16.6189 313.038 16.6189ZM313.038 1.12195C142.331 1.12195 3.38602 140.002 3.30902 310.727C3.29202 362.907 16.465 414.319 41.444 459.833L1.38903 606.105C-0.0699654 611.453 1.41803 617.151 5.32403 621.093C8.27003 624.069 12.253 625.697 16.341 625.697C17.659 625.697 18.977 625.527 20.277 625.187L170.391 585.829C214.213 608.577 263.341 620.59 312.915 620.601C483.751 620.601 622.689 481.703 622.766 310.979C622.795 228.243 590.611 150.451 532.141 91.934C473.641 33.406 395.838 1.15695 313.038 1.12195Z" fill="#CFD8DC"/>
<path fill-rule="evenodd" clip-rule="evenodd" d="M313.038 16.6189C391.744 16.6489 465.6 47.2859 521.159 102.875C576.7 158.475 607.292 232.366 607.256 310.961C607.192 473.135 475.194 605.086 313.038 605.086H312.915C263.681 605.069 215.285 592.722 172.312 569.271L16.341 610.188L58.0901 457.778C32.3311 413.177 18.79 362.567 18.807 310.727C18.883 148.559 150.852 16.6189 313.038 16.6189ZM313.038 1.12195C142.331 1.12195 3.38602 140.002 3.30902 310.727C3.29202 362.907 16.465 414.319 41.444 459.833L1.38903 606.105C-0.0699654 611.453 1.41803 617.151 5.32403 621.093C8.27003 624.069 12.253 625.697 16.341 625.697C17.659 625.697 18.977 625.527 20.277 625.187L170.391 585.829C214.213 608.577 263.341 620.59 312.915 620.601C483.751 620.601 622.689 481.703 622.766 310.979C622.795 228.243 590.611 150.451 532.141 91.934C473.641 33.406 395.838 1.15695 313.038 1.12195Z" stroke="black" stroke-width="0.64" stroke-miterlimit="22.9256"/>
<path fill-rule="evenodd" clip-rule="evenodd" d="M486.011 137.987C439.829 91.776 378.448 66.316 313.114 66.298C178.234 66.298 68.533 175.952 68.469 310.739C68.451 356.932 81.377 401.902 105.859 440.845L111.687 450.099L86.97 540.302L179.534 516.037L188.478 521.337C226.009 543.623 269.058 555.401 312.944 555.413L313.038 555.419C447.824 555.419 557.525 445.748 557.572 310.943C557.589 245.627 532.187 184.199 486.011 137.987Z" fill="black"/>
<path fill-rule="evenodd" clip-rule="evenodd" d="M239.492 187.777C233.992 175.536 228.194 175.285 222.94 175.068C218.647 174.881 213.75 174.898 208.854 174.898C203.957 174.898 195.992 176.743 189.251 184.105C182.509 191.467 163.509 209.243 163.509 245.41C163.509 281.577 189.854 316.537 193.526 321.433C197.198 326.33 244.388 402.927 319.111 432.405C381.207 456.887 393.852 452.026 407.335 450.802C420.818 449.578 450.834 433.026 456.955 415.859C463.075 398.687 463.075 383.986 461.248 380.917C459.403 377.848 454.507 376.02 447.162 372.331C439.817 368.641 403.662 350.87 396.921 348.416C390.18 345.968 385.283 344.744 380.369 352.106C375.473 359.451 361.387 376.02 357.094 380.917C352.801 385.831 348.507 386.452 341.163 382.762C333.818 379.072 310.138 371.323 282.042 346.284C260.19 326.804 245.442 302.738 241.149 295.376C236.856 288.031 240.686 284.048 244.37 280.376C247.674 277.073 251.715 271.79 255.405 267.497C259.077 263.204 260.301 260.135 262.75 255.238C265.198 250.324 263.974 246.031 262.129 242.359C260.319 238.669 246.028 202.315 239.492 187.777Z" fill="white"/>
</svg>
